<svg width="36" height="22" viewBox="0 0 36 22" fill="none" xmlns="http://www.w3.org/2000/svg">
  <!-- Alfa-Capital Logo Icon - Dots Pattern -->
  <!-- Row 1 (top): 3 dots -->
  <path d="M18.36 2.63146C18.36 2.23243 18.2444 1.84236 18.0278 1.51058C17.8111 1.17879 17.5032 0.920199 17.143 0.767496C16.7828 0.614792 16.3864 0.574838 16.004 0.652686C15.6215 0.730533 15.2703 0.922685 14.9946 1.20484C14.7189 1.487 14.5311 1.84649 14.455 2.23786C14.379 2.62923 14.418 3.03489 14.5672 3.40354C14.7164 3.7722 14.9691 4.0873 15.2933 4.30899C15.6175 4.53068 15.9987 4.64901 16.3886 4.64901C16.9114 4.64901 17.4129 4.43644 17.7826 4.05808C18.1523 3.67972 18.36 3.16655 18.36 2.63146Z" fill="#E42612"/>
  <path d="M10.4914 2.63146C10.4914 2.36602 10.4145 2.10654 10.2704 1.88583C10.1263 1.66512 9.9215 1.4931 9.68186 1.39152C9.44223 1.28994 9.17855 1.26336 8.92415 1.31515C8.66976 1.36693 8.43609 1.49475 8.25268 1.68245C8.06927 1.87015 7.94437 2.10929 7.89377 2.36963C7.84317 2.62997 7.86914 2.89983 7.9684 3.14506C8.06766 3.3903 8.23575 3.59991 8.45141 3.74738C8.66707 3.89486 8.92062 3.97357 9.18 3.97357C9.52781 3.97357 9.86138 3.83217 10.1073 3.58047C10.3533 3.32878 10.4914 2.98741 10.4914 2.63146Z" fill="#1A1A2E"/>
  <path d="M27.54 2.63146C27.54 2.10095 27.3864 1.58234 27.0986 1.14111C26.8107 0.699887 26.4016 0.355843 25.9228 0.152426C25.4441 -0.0509906 24.9171 -0.104657 24.4086 -0.00179483C23.9 0.101067 23.4327 0.355844 23.0655 0.73036C22.6984 1.10488 22.4479 1.58234 22.3457 2.10244C22.2436 2.62255 22.2943 3.16198 22.4915 3.6526C22.6887 4.14323 23.0235 4.56305 23.4537 4.85904C23.8839 5.15504 24.3902 5.31394 24.9086 5.31567C25.2537 5.31683 25.5957 5.24825 25.9149 5.11387C26.2341 4.9795 26.5243 4.78196 26.7688 4.53259C27.0132 4.28323 27.2072 3.98693 27.3395 3.6607C27.4719 3.33446 27.54 2.9847 27.54 2.63146Z" fill="#E42612"/>

  <!-- Row 2 (middle): 4 dots -->
  <path d="M14.4086 9.64901C14.4086 9.25171 14.2935 8.86333 14.0778 8.53299C13.8621 8.20265 13.5555 7.94518 13.1969 7.79314C12.8382 7.6411 12.4435 7.60132 12.0628 7.67883C11.682 7.75634 11.3323 7.94766 11.0578 8.22859C10.7833 8.50952 10.5963 8.86745 10.5206 9.25712C10.4448 9.64678 10.4837 10.0507 10.6323 10.4177C10.7808 10.7848 11.0324 11.0985 11.3552 11.3192C11.678 11.54 12.0575 11.6578 12.4457 11.6578C12.9663 11.6578 13.4656 11.4461 13.8337 11.0694C14.2018 10.6927 14.4086 10.1818 14.4086 9.64901Z" fill="#E42612"/>
  <path d="M6.54 9.64901C6.53662 9.38434 6.45684 9.1266 6.3107 8.90821C6.16456 8.68983 5.95858 8.52054 5.71867 8.42164C5.47876 8.32275 5.21563 8.29866 4.96238 8.35241C4.70913 8.40616 4.47706 8.53535 4.29536 8.72372C4.11367 8.9121 3.99046 9.15125 3.94123 9.4111C3.892 9.67096 3.91895 9.93991 4.0187 10.1841C4.11844 10.4283 4.28652 10.6369 4.50179 10.7836C4.71707 10.9303 4.96993 11.0086 5.22857 11.0087C5.40257 11.0099 5.57504 10.9754 5.73581 10.9073C5.89658 10.8391 6.04238 10.7388 6.16462 10.612C6.28686 10.4853 6.38305 10.3348 6.44752 10.1694C6.51199 10.004 6.54344 9.82705 6.54 9.64901Z" fill="#1A1A2E"/>
  <path d="M23.6057 9.64901C23.6057 9.11812 23.4519 8.59916 23.1637 8.15774C22.8755 7.71632 22.4658 7.37228 21.9866 7.16912C21.5073 6.96596 20.9799 6.9128 20.4712 7.01637C19.9624 7.11994 19.495 7.37559 19.1282 7.75098C18.7614 8.12638 18.5116 8.60466 18.4104 9.12534C18.3092 9.64603 18.3611 10.1857 18.5597 10.6762C18.7582 11.1667 19.0943 11.5859 19.5257 11.8808C19.957 12.1758 20.4641 12.3332 20.9829 12.3332C21.3273 12.3332 21.6684 12.2638 21.9866 12.1289C22.3048 11.994 22.5939 11.7963 22.8375 11.547C23.0811 11.2978 23.2743 11.0019 23.4061 10.6762C23.5379 10.3505 23.6057 10.0015 23.6057 9.64901Z" fill="#E42612"/>
  <path d="M31.4571 9.64901C31.4571 9.11812 31.3033 8.59916 31.0151 8.15774C30.7269 7.71632 30.3173 7.37228 29.838 7.16912C29.3587 6.96596 28.8314 6.9128 28.3226 7.01637C27.8138 7.11994 27.3465 7.37559 26.9796 7.75098C26.6128 8.12638 26.363 8.60466 26.2618 9.12534C26.1606 9.64603 26.2126 10.1857 26.4111 10.6762C26.6096 11.1667 26.9458 11.5859 27.3771 11.8808C27.8084 12.1758 28.3155 12.3332 28.8343 12.3332C29.1787 12.3332 29.5198 12.2638 29.838 12.1289C30.1562 11.994 30.4454 11.7963 30.6889 11.547C30.9325 11.2978 31.1257 11.0019 31.2575 10.6762C31.3893 10.3505 31.4571 10.0015 31.4571 9.64901Z" fill="#E42612"/>

  <!-- Row 3 (bottom): 5 dots -->
  <path d="M19.7143 16.6665C19.7126 17.1971 19.5573 17.7152 19.2681 18.1554C18.9789 18.5957 18.5686 18.9384 18.0892 19.1402C17.6098 19.342 17.0827 19.3939 16.5745 19.2893C16.0663 19.1848 15.5997 18.9284 15.2338 18.5527C14.8678 18.177 14.6189 17.6987 14.5184 17.1782C14.4178 16.6578 14.4703 16.1185 14.6691 15.6286C14.8678 15.1386 15.204 14.7199 15.6351 14.4253C16.0663 14.1308 16.573 13.9736 17.0914 13.9736C17.4366 13.9736 17.7784 14.0433 18.0971 14.1787C18.4159 14.3142 18.7054 14.5127 18.9491 14.7629C19.1928 15.013 19.3858 15.31 19.5171 15.6367C19.6484 15.9633 19.7154 16.3133 19.7143 16.6665Z" fill="#E42612"/>
  <path d="M10.4914 16.6665C10.4931 16.2671 10.3789 15.8762 10.1634 15.5433C9.94777 15.2103 9.64047 14.9504 9.28039 14.7963C8.92031 14.6423 8.52366 14.6011 8.14068 14.6779C7.75769 14.7548 7.40562 14.9462 7.12905 15.2281C6.85248 15.5099 6.66387 15.8693 6.5871 16.2609C6.51034 16.6525 6.54887 17.0587 6.69783 17.4278C6.84679 17.797 7.09947 18.1126 7.42385 18.3347C7.74823 18.5568 8.12972 18.6753 8.52 18.6753C9.04137 18.6753 9.54152 18.464 9.91099 18.0875C10.2805 17.711 10.4892 17.2001 10.4914 16.6665Z" fill="#E42612"/>
  <path d="M2.62286 16.6665C2.62286 16.4011 2.54594 16.1416 2.40184 15.9209C2.25774 15.7002 2.05292 15.5282 1.81329 15.4266C1.57366 15.325 1.30997 15.2984 1.05558 15.3502C0.80119 15.402 0.567516 15.5298 0.384109 15.7175C0.200703 15.9052 0.0758011 16.1444 0.0251993 16.4047C-0.0254024 16.6651 0.00056822 16.9349 0.0998271 17.1802C0.199086 17.4254 0.367175 17.635 0.582839 17.7825C0.798502 17.9299 1.05205 18.0087 1.31143 18.0087C1.65855 18.0064 1.99081 17.8642 2.23627 17.613C2.48172 17.3618 2.62061 17.0218 2.62286 16.6665Z" fill="#1A1A2E"/>
  <path d="M35.4 16.6665C35.3999 16.1334 35.2447 15.6124 34.9541 15.17C34.6636 14.7275 34.2509 14.3835 33.7686 14.182C33.2864 13.9805 32.7564 13.9305 32.2462 14.0384C31.7361 14.1463 31.2689 14.4073 30.9042 14.7879C30.5395 15.1686 30.2939 15.6518 30.1986 16.1759C30.1033 16.7 30.1626 17.2413 30.369 17.7307C30.5754 18.2202 30.9196 18.6357 31.3576 18.9242C31.7957 19.2127 32.3078 19.3612 32.8286 19.3508C33.516 19.3392 34.1712 19.0511 34.6525 18.5487C35.1338 18.0463 35.4023 17.3701 35.4 16.6665Z" fill="#E42612"/>
  <path d="M27.54 16.6665C27.54 16.1334 27.3847 15.6124 27.0941 15.17C26.8036 14.7275 26.3909 14.3835 25.9086 14.182C25.4264 13.9805 24.8964 13.9305 24.3862 14.0384C23.8761 14.1463 23.4089 14.4073 23.0442 14.7879C22.6795 15.1686 22.4339 15.6518 22.3386 16.1759C22.2433 16.7 22.3026 17.2413 22.509 17.7307C22.7154 18.2202 23.0596 18.6357 23.4976 18.9242C23.9357 19.2127 24.4478 19.3612 24.9686 19.3508C25.656 19.3392 26.3112 19.0511 26.7925 18.5487C27.2738 18.0463 27.5423 17.3701 27.54 16.6665Z" fill="#E42612"/>
</svg>